<svg id="Capa_1" data-name="Capa 1" xmlns="http://www.w3.org/2000/svg" viewBox="0 0 32 32"><defs><style>.cls-1{fill:#023047;}.cls-2{fill:none;stroke:#023047;stroke-miterlimit:10;stroke-width:2px;}</style></defs><path class="cls-1" d="M26.2,2A3.8,3.8,0,0,1,30,5.8V26.2A3.8,3.8,0,0,1,26.2,30H5.8A3.8,3.8,0,0,1,2,26.2V5.8A3.8,3.8,0,0,1,5.8,2H26.2m0-2H5.8A5.8,5.8,0,0,0,0,5.8V26.2A5.8,5.8,0,0,0,5.8,32H26.2A5.8,5.8,0,0,0,32,26.2V5.8A5.8,5.8,0,0,0,26.2,0Z"/><line class="cls-2" x1="11.5" y1="0.94" x2="11.5" y2="30.91"/><line class="cls-2" x1="20.95" y1="0.94" x2="20.95" y2="30.91"/><line class="cls-2" x1="1.01" y1="20.65" x2="30.99" y2="20.65"/><line class="cls-2" x1="1.01" y1="11.2" x2="30.99" y2="11.2"/></svg>