<svg id="Capa_1" data-name="Capa 1" xmlns="http://www.w3.org/2000/svg" viewBox="0 0 26.95 32"><defs><style>.cls-1{fill:#023047;}.cls-2{fill:#fff;}</style></defs><path id="Traje" class="cls-1" d="M29.47,32H2.53L4.14,16.82c1.12-2.31,9.1-3.64,11.67-3.64h0c2.53,0,10.82,1.68,12,3.93Z" transform="translate(-2.53)"/><polygon id="Camisa" class="cls-2" points="13.54 32 10.06 13.31 16.59 13.31 13.54 32"/><circle id="Cabeza" class="cls-1" cx="13.47" cy="6.9" r="6.9"/><path class="cls-1" d="M15.61,14.16h0a1.27,1.27,0,0,1,1.27,1.27v0a.48.48,0,0,1-.48.48h0a1.27,1.27,0,0,1-1.27-1.27v0a.48.48,0,0,1,.48-.48Z" transform="translate(12.79 -6.91) rotate(45)"/><path class="cls-1" d="M16.06,32,14.85,27c-.85-2.39.17-8.36.77-11.36a.38.38,0,0,1,.74,0c.53,2.82,1.4,8.27.85,11.36Z" transform="translate(-2.53)"/></svg>