<?xml version="1.0" encoding="utf-8"?>
<!-- Generator: Adobe Illustrator 24.1.0, SVG Export Plug-In . SVG Version: 6.00 Build 0)  -->
<svg version="1.1" xmlns="http://www.w3.org/2000/svg" xmlns:xlink="http://www.w3.org/1999/xlink" x="0px" y="0px"
	 viewBox="0 0 64 64" style="enable-background:new 0 0 64 64;" xml:space="preserve">
<style type="text/css">
	.st0{fill:#FFFFFF;}
	.st1{fill:#68BAEF;}
	.st2{fill:#FFD506;}
	.st3{fill:#FFB703;}
</style>
<g id="fondo">
	<circle class="st0" cx="32" cy="32" r="32"/>
</g>
<g id="content">
	<g>
		<path class="st1" d="M34.1,2.3c-3.4-0.2-6.7,0.1-9.7,0.9c-7.8,2-10.3,11.8-4.7,17.4l0,0c3.5-3.7,8.6-5.9,14.2-5.3
			c7.7,0.8,13.9,7.1,14.8,14.8c0.2,2.2,0,4.4-0.5,6.4c-1.7,5.9-0.3,12.2,4.1,16.6l0.4,0.4l0,0c-4.6-4.6-11.1-6.2-17.4-5
			c-1.8,0.3-3.6,0.4-5.6,0.1c-7.3-1-13.2-6.9-14.2-14.2c-0.7-5.3,1-10.3,4.3-13.8l0,0c-5.5-5.5-15-2.9-16.8,4.7
			c-0.7,3.2-0.9,6.5-0.6,10c1.5,13.8,12.7,25,26.6,26.4c18.3,1.8,33.7-13,32.8-31.2C61.1,15.6,49,3.3,34.1,2.3z"/>
		<path class="st2" d="M29.5,48.6c4.8,0.7,9.3-0.7,12.8-3.4c0.6-0.5,0.7-1.4,0.1-1.9l0,0c-2.9-2.9-6.8-4.4-11-4.7
			c-0.5,0-0.9-0.1-1.4-0.3c-2.1-0.6-3.8-2.3-4.4-4.4c-0.7-2.3-0.1-4.5,1.2-6.1l0,0c-4.4-4.4-12.1-1.1-11.7,5.2
			c0,0.5,0.1,0.9,0.1,1.4C16.4,41.7,22.3,47.5,29.5,48.6z"/>
		<path class="st3" d="M33.2,25.5c2.6,0.5,4.7,2.6,5.2,5.2c0.1,0.5,0.1,0.9,0.1,1.4c-0.1,4.4,1.3,8.7,4.4,11.8l0,0
			c0.2,0.2,0.6,0.2,0.8,0c3.5-3.5,5.5-8.5,4.8-14c-0.9-7.6-7.1-13.7-14.7-14.5c-0.6-0.1-1.1-0.1-1.7-0.1c-6.6-0.1-10,7.9-5.3,12.6
			l0,0C28.4,26.1,30.7,25.1,33.2,25.5z"/>
	</g>
</g>
</svg>
