<?xml version="1.0" encoding="utf-8"?>
<!-- Generator: Adobe Illustrator 24.1.0, SVG Export Plug-In . SVG Version: 6.00 Build 0)  -->
<svg version="1.1" id="content" xmlns="http://www.w3.org/2000/svg" xmlns:xlink="http://www.w3.org/1999/xlink" x="0px" y="0px"
	 viewBox="0 0 64 64" style="enable-background:new 0 0 64 64;" xml:space="preserve">
<style type="text/css">
	.st0{display:none;fill:#FFFFFF;}
	.st1{fill:#68BAEF;}
	.st2{fill:#FFD506;}
	.st3{fill:#FFB703;}
</style>
<g>
	<path class="st0" d="M41.7,32.7c7.7,19.3-3.8,8.9-8.6,9c-4.8,0.1-8.8-3.8-8.9-8.7s3.8-8.9,8.6-9S41.6,27.8,41.7,32.7z"/>
	<path class="st1" d="M18.8,19.8c3.7-4,9.2-6.3,15.2-5.7C42.3,15,49,21.7,49.9,30c0.3,2.4,0.1,4.7-0.6,6.9
		C47.6,43.2,49,50,53.7,54.6l0.5,0.5l0,0c-4.9-4.9-11.9-6.7-18.7-5.4c-1.9,0.4-3.9,0.4-6,0.1c-7.8-1.1-14.1-7.4-15.2-15.2
		C13.4,28.8,15.3,23.6,18.8,19.8L18.8,19.8c-5.9-5.9-16.1-3.1-18,5.1c-0.8,3.4-1,7-0.6,10.7c1.6,14.9,13.7,26.8,28.5,28.3
		c19.7,2,36.2-13.9,35.2-33.4c-0.8-16-13.7-29.2-29.7-30.3c-3.6-0.3-7.2,0.1-10.5,1C15.5,3.2,12.7,13.7,18.8,19.8"/>
	<path class="st1" d="M18.8,19.8L18.8,19.8"/>
	<path class="st2" d="M29.3,49.8c5.2,0.7,10-0.7,13.7-3.6c0.7-0.5,0.7-1.5,0.1-2.1l0,0c-3.1-3.1-7.4-4.7-11.8-5.1
		c-0.5,0-1-0.1-1.5-0.3c-2.2-0.7-4-2.5-4.7-4.7c-0.7-2.5-0.1-4.8,1.3-6.5l0,0c-4.8-4.8-12.9-1.2-12.5,5.5c0,0.5,0.1,1,0.2,1.5
		C15.3,42.4,21.5,48.7,29.3,49.8z"/>
	<path class="st3" d="M33.3,25.1c2.8,0.5,5.1,2.8,5.6,5.6c0.1,0.5,0.1,1,0.1,1.5c-0.1,4.7,1.4,9.3,4.7,12.6l0,0
		c0.2,0.2,0.6,0.2,0.9,0c3.8-3.8,5.9-9.2,5.2-15c-1-8.1-7.6-14.7-15.8-15.6C33.5,14,32.9,14,32.3,14c-7.1-0.1-10.7,8.5-5.7,13.5l0,0
		C28.1,25.6,30.6,24.6,33.3,25.1z"/>
</g>
</svg>
